# Blender v2.79 (sub 0) OBJ File: ''
# www.blender.org
mtllib Terreo.mtl
o AndarTerreo_Cube.003
v -25.837391 -0.085262 7.206108
v -25.837391 9.310233 7.206107
v -25.837391 -0.085264 -5.524935
v -25.837391 9.310231 -5.524937
v -24.630344 0.907819 7.206108
v -24.630344 8.317152 7.206107
v -24.630344 0.907817 -4.974898
v -24.630344 8.317150 -4.974899
v -11.263383 3.454093 -5.367574
v -11.263383 5.454093 -5.367574
v -9.263383 3.454093 -5.367574
v -9.263383 5.454093 -5.367574
v -11.263383 3.454093 -4.776347
v -11.263383 5.454093 -4.776348
v -9.263383 3.454093 -4.776347
v -9.263383 5.454093 -4.776348
v -9.418162 5.299313 -4.776348
v -9.418162 3.608872 -4.776347
v -11.108603 3.608872 -4.776347
v -11.108603 5.299313 -4.776348
v -9.450978 5.266497 -4.919305
v -9.450978 3.641687 -4.919305
v -11.075788 3.641687 -4.919305
v -11.075788 5.266497 -4.919305
v -10.263383 3.454093 -5.367574
v -10.383740 5.751471 -5.367574
v -10.143025 5.751471 -5.367574
v -10.263383 5.776237 -5.367574
v -10.263383 3.454093 -4.776347
v -10.383740 5.751471 -4.776348
v -10.143025 5.751471 -4.776348
v -10.263383 5.776237 -4.776348
v -10.263383 3.608872 -4.776347
v -10.383740 5.596692 -4.776348
v -10.143025 5.596692 -4.776348
v -10.263383 5.621458 -4.776348
v -10.263383 3.641687 -4.919305
v -10.143025 5.563876 -4.919305
v -10.383740 5.563876 -4.919305
v -10.263383 5.588642 -4.919305
v -24.630344 0.971305 2.658631
v -24.630344 6.766248 2.658630
v -24.630344 0.971305 -1.066205
v -24.630344 6.766248 -1.066206
v -25.741186 0.967927 -1.064130
v -25.741186 0.967928 2.678209
v -25.741186 6.760436 2.678208
v -25.741186 6.760435 -1.064131
v -21.756243 5.299313 -4.776348
v -21.756243 3.608872 -4.776347
v -20.065802 3.608872 -4.776347
v -20.065802 5.299313 -4.776348
v -19.911020 5.454093 -4.776348
v -19.911020 3.454093 -4.776347
v -21.911020 5.454093 -4.776348
v -21.911020 3.454093 -4.776347
v -19.911020 5.454093 -5.367574
v -19.911020 3.454093 -5.367574
v -21.911020 5.454093 -5.367574
v -21.911020 3.454093 -5.367574
v 19.416035 9.310233 6.244616
v 25.052822 9.310231 -3.980016
v 25.052822 9.310233 6.244616
v 18.644466 9.310231 -3.980016
v 18.644466 9.310233 6.244616
v 19.330481 8.357732 6.276979
v 19.325350 0.967929 6.276981
v 18.514048 -0.085262 7.206108
v 18.504278 9.310233 7.206107
v 18.514048 -0.085264 -5.524935
v 18.504278 9.310231 -5.524937
v 17.458275 0.907819 7.206108
v 17.458275 8.317152 7.206107
v 17.458275 0.907817 -4.974898
v 17.458275 8.317150 -4.974899
v 17.458275 0.971305 2.658631
v 17.458275 6.766248 2.658630
v 17.458275 0.971305 -1.066205
v 17.458275 6.766248 -1.066206
v 18.569117 0.967927 -1.064130
v 18.569117 0.967928 2.678209
v 18.569117 6.760436 2.678208
v 18.569117 6.760435 -1.064131
v 25.608356 -0.085264 -5.524935
v 25.608356 -0.085262 7.206108
v 25.608356 9.310233 7.206107
v 25.608356 9.310231 -5.524937
v 25.031311 0.967927 -3.990309
v 25.031311 0.967929 6.276981
v 25.031311 8.357732 6.276979
v 25.031311 8.357730 -3.990311
v 18.663582 8.357730 -3.990311
v 18.663582 0.967927 -3.990309
v 18.663582 0.967929 6.276981
v 18.663582 8.357732 6.276979
v 19.348169 0.819913 7.206108
v 19.348169 8.384706 7.206107
v 24.925508 0.819913 7.206108
v 24.925508 8.384706 7.206107
v 10.927614 3.454093 -5.367574
v 10.927614 5.454093 -5.367574
v 12.927614 3.454093 -5.367574
v 12.927614 5.454093 -5.367574
v 10.927614 3.454093 -4.776347
v 10.927614 5.454093 -4.776348
v 12.927614 3.454093 -4.776347
v 12.927614 5.454093 -4.776348
v 12.772835 5.299313 -4.776348
v 12.772835 3.608872 -4.776347
v 11.082394 3.608872 -4.776347
v 11.082394 5.299313 -4.776348
v 12.740019 5.266497 -4.919305
v 12.740019 3.641687 -4.919305
v 11.115210 3.641687 -4.919305
v 11.115210 5.266497 -4.919305
v 11.927614 3.454093 -5.367574
v 11.807257 5.751471 -5.367574
v 12.047972 5.751471 -5.367574
v 11.927614 5.776237 -5.367574
v 11.927614 3.454093 -4.776347
v 11.807257 5.751471 -4.776348
v 12.047972 5.751471 -4.776348
v 11.927614 5.776237 -4.776348
v 11.927614 3.608872 -4.776347
v 11.807257 5.596692 -4.776348
v 12.047972 5.596692 -4.776348
v 11.927614 5.621458 -4.776348
v 11.927614 3.641687 -4.919305
v 12.047972 5.563876 -4.919305
v 11.807257 5.563876 -4.919305
v 11.927614 5.588642 -4.919305
v 1.158807 3.454093 -5.367574
v 1.158807 5.454093 -5.367574
v 3.158807 3.454093 -5.367574
v 3.158807 5.454093 -5.367574
v 1.158807 3.454093 -4.776347
v 1.158807 5.454093 -4.776348
v 3.158807 3.454093 -4.776347
v 3.158807 5.454093 -4.776348
v 3.004027 5.299313 -4.776348
v 3.004027 3.608872 -4.776347
v 1.313586 3.608872 -4.776347
v 1.313586 5.299313 -4.776348
v 2.971211 5.266497 -4.919305
v 2.971211 3.641687 -4.919305
v 1.346402 3.641687 -4.919305
v 1.346402 5.266497 -4.919305
v 2.158807 3.454093 -5.367574
v 2.038449 5.751471 -5.367574
v 2.279164 5.751471 -5.367574
v 2.158807 5.776237 -5.367574
v 2.158807 3.454093 -4.776347
v 2.038449 5.751471 -4.776348
v 2.279164 5.751471 -4.776348
v 2.158807 5.776237 -4.776348
v 2.158807 3.608872 -4.776347
v 2.038449 5.596692 -4.776348
v 2.279164 5.596692 -4.776348
v 2.158807 5.621458 -4.776348
v 2.158807 3.641687 -4.919305
v 2.279164 5.563876 -4.919305
v 2.038449 5.563876 -4.919305
v 2.158807 5.588642 -4.919305
v -20.098616 5.266497 -4.919305
v -20.098616 3.641687 -4.919305
v -21.723425 3.641687 -4.919305
v -21.723425 5.266497 -4.919305
v -20.911020 3.454093 -5.367574
v -21.031378 5.751471 -5.367574
v -20.790663 5.751471 -5.367574
v -20.911020 5.776237 -5.367574
v -20.911020 3.454093 -4.776347
v -21.031378 5.751471 -4.776348
v -20.790663 5.751471 -4.776348
v -20.911020 5.776237 -4.776348
v -20.911020 3.608872 -4.776347
v -21.031378 5.596692 -4.776348
v -20.790663 5.596692 -4.776348
v -20.911020 5.621458 -4.776348
v -20.911020 3.641687 -4.919305
v -20.790663 5.563876 -4.919305
v -21.031378 5.563876 -4.919305
v -20.911020 5.588642 -4.919305
vt 0.912920 0.087472
vt 0.913550 0.176952
vt 0.905077 0.172052
vt 0.906115 0.093867
vt 0.617547 0.781115
vt 0.613160 0.660685
vt 0.985579 0.656677
vt 0.985742 0.778502
vt 0.985147 0.566127
vt 0.973896 0.647206
vt 0.973546 0.575765
vt 0.623571 0.650850
vt 0.623599 0.577265
vt 0.613322 0.567602
vt 0.030254 0.867541
vt 0.146061 0.867541
vt 0.120997 0.869563
vt 0.120966 0.869125
vt 0.146061 0.523418
vt 0.216503 0.523418
vt 0.216503 0.867541
vt 0.686782 0.178962
vt 0.645942 0.202823
vt 0.643752 0.193601
vt 0.678309 0.174062
vt 0.733526 0.050079
vt 0.749303 0.223501
vt 0.694751 0.186290
vt 0.696095 0.081410
vt 0.646210 0.212866
vt 0.576135 0.087755
vt 0.578259 0.191746
vt 0.540257 0.220673
vt 0.520719 0.043985
vt 0.634520 0.070369
vt 0.635784 0.008872
vt 0.686152 0.089482
vt 0.634971 0.079452
vt 0.584194 0.093976
vt 0.588382 0.182615
vt 0.679346 0.095877
vt 0.592667 0.099966
vt 0.594912 0.177565
vt 0.635474 0.090044
vt 0.629177 0.203238
vt 0.630744 0.193979
vt 0.629407 0.212952
vt 0.623663 0.265190
vt 0.648825 0.265960
vt 0.637284 0.195102
vt 0.637739 0.214184
vt 0.635971 0.265960
vt 0.637553 0.204068
vt 0.216503 0.983348
vt 0.146061 0.983348
vt 0.146665 0.940114
vt 0.201758 0.940114
vt 0.201758 0.904702
vt 0.146665 0.904702
vt 0.802903 0.085745
vt 0.861288 0.068359
vt 0.861740 0.077442
vt 0.810962 0.091966
vt 0.805027 0.189736
vt 0.815150 0.180605
vt 0.922863 0.079400
vt 0.921519 0.184280
vt 0.896440 0.303673
vt 0.951572 0.303218
vt 0.951604 0.313787
vt 0.896495 0.314242
vt 0.861003 0.303925
vt 0.860891 0.314494
vt 0.987010 0.303177
vt 0.987209 0.313745
vt 0.805874 0.303177
vt 0.805786 0.313747
vt 0.960294 0.048069
vt 0.862553 0.006862
vt 0.767025 0.218663
vt 0.747487 0.041975
vt 0.872978 0.210856
vt 0.872710 0.200813
vt 0.976071 0.221491
vt 0.870520 0.191591
vt 0.251412 0.458059
vt 0.499877 0.374454
vt 0.533064 0.336429
vt 0.339358 0.358273
vt 0.779195 0.359686
vt 0.972700 0.383238
vt 0.961130 0.391516
vt 0.739444 0.387779
vt 0.943237 0.404348
vt 0.710156 0.408491
vt 0.931618 0.412556
vt 0.670552 0.436425
vt 0.030254 0.523418
vt 0.985943 0.989580
vt 0.620121 0.989473
vt 0.619289 0.870778
vt 0.985892 0.868284
vt 0.592163 0.427172
vt 0.645790 0.426714
vt 0.645663 0.435783
vt 0.591426 0.436246
vt 0.710901 0.303470
vt 0.781208 0.303470
vt 0.781208 0.309815
vt 0.710901 0.309766
vt 0.550650 0.871698
vt 0.617800 0.887038
vt 0.556046 0.886338
vt 0.584822 0.427235
vt 0.585082 0.436300
vt 0.487399 0.435777
vt 0.487546 0.426714
vt 0.346342 0.649178
vt 0.346342 0.588224
vt 0.355403 0.588406
vt 0.355403 0.648974
vt 0.055343 0.521834
vt 0.146076 0.521834
vt 0.216503 0.407611
vt 0.201758 0.450845
vt 0.146665 0.450845
vt 0.146061 0.407611
vt 0.201758 0.486257
vt 0.146665 0.486257
vt 0.425692 0.588406
vt 0.425692 0.648974
vt 0.606012 0.653004
vt 0.605006 0.578278
vt 0.550594 0.781843
vt 0.896555 0.280303
vt 0.896499 0.290872
vt 0.841391 0.290417
vt 0.841423 0.279848
vt 0.931992 0.280555
vt 0.932103 0.291125
vt 0.805786 0.290375
vt 0.805984 0.279807
vt 0.987120 0.279807
vt 0.987209 0.290377
vt 0.550762 0.451340
vt 0.584759 0.506607
vt 0.550509 0.506450
vt 0.514809 0.506259
vt 0.486956 0.506083
vt 0.515157 0.451149
vt 0.481172 0.587299
vt 0.523351 0.588406
vt 0.450036 0.587376
vt 0.552255 0.989540
vt 0.557296 0.980574
vt 0.608357 0.979111
vt 0.618353 0.978584
vt 0.428896 0.871775
vt 0.428839 0.781920
vt 0.523351 0.648974
vt 0.523351 0.719263
vt 0.425692 0.719263
vt 0.425790 0.728325
vt 0.523044 0.728326
vt 0.555529 0.594709
vt 0.544307 0.585306
vt 0.593716 0.587930
vt 0.593812 0.588246
vt 0.599756 0.646854
vt 0.549637 0.664067
vt 0.553852 0.656901
vt 0.536843 0.577758
vt 0.559420 0.646966
vt 0.332309 0.523418
vt 0.332309 0.867542
vt 0.523351 0.594700
vt 0.200357 0.180972
vt 0.159518 0.204833
vt 0.157328 0.195611
vt 0.191884 0.176072
vt 0.247102 0.052089
vt 0.262879 0.225512
vt 0.208326 0.188300
vt 0.209671 0.083420
vt 0.159786 0.214876
vt 0.089711 0.089765
vt 0.091835 0.193756
vt 0.053833 0.222683
vt 0.034295 0.045995
vt 0.148096 0.072379
vt 0.149360 0.010882
vt 0.199728 0.091492
vt 0.148547 0.081462
vt 0.097769 0.095986
vt 0.101958 0.184625
vt 0.192922 0.097887
vt 0.106243 0.101976
vt 0.108487 0.179574
vt 0.149049 0.092054
vt 0.142753 0.205248
vt 0.144319 0.195989
vt 0.142983 0.214962
vt 0.137239 0.267200
vt 0.162400 0.267970
vt 0.150860 0.197112
vt 0.151314 0.216194
vt 0.149547 0.267970
vt 0.151129 0.206078
vt 0.439185 0.180973
vt 0.398346 0.204833
vt 0.396156 0.195611
vt 0.430712 0.176072
vt 0.485930 0.052089
vt 0.501707 0.225512
vt 0.447154 0.188300
vt 0.448499 0.083420
vt 0.398614 0.214876
vt 0.328539 0.089765
vt 0.330663 0.193756
vt 0.292661 0.222683
vt 0.273123 0.045995
vt 0.386924 0.072379
vt 0.388188 0.010882
vt 0.438556 0.091492
vt 0.387375 0.081462
vt 0.336597 0.095986
vt 0.340786 0.184625
vt 0.431750 0.097887
vt 0.345071 0.101976
vt 0.347315 0.179574
vt 0.387878 0.092054
vt 0.381581 0.205248
vt 0.383147 0.195989
vt 0.381811 0.214962
vt 0.376067 0.267200
vt 0.401228 0.267970
vt 0.389688 0.197112
vt 0.390142 0.216194
vt 0.388375 0.267970
vt 0.389957 0.206078
vt 0.819435 0.097956
vt 0.821680 0.175555
vt 0.862242 0.088034
vt 0.855945 0.201228
vt 0.857512 0.191969
vt 0.856175 0.210943
vt 0.850432 0.263180
vt 0.875593 0.263950
vt 0.864052 0.193092
vt 0.864507 0.212174
vt 0.862739 0.263950
vt 0.864322 0.202058
vn -0.9747 0.0000 0.2237
vn 0.0000 -1.0000 0.0000
vn -0.0000 0.0000 1.0000
vn 1.0000 0.0000 0.0000
vn -0.3749 -0.8932 0.2481
vn -1.0000 0.0000 0.0000
vn 0.9747 -0.0000 0.2237
vn 0.0000 0.9747 0.2237
vn 0.3749 -0.8932 0.2481
vn -0.3203 0.9473 0.0000
vn 0.3203 0.9473 0.0000
vn -0.2016 0.9795 0.0000
vn 0.2016 0.9795 0.0000
vn 0.1966 -0.9556 0.2194
vn -0.1966 -0.9556 0.2194
vn 0.0019 0.0000 1.0000
vn -0.0030 1.0000 -0.0000
vn 0.0052 -1.0000 0.0000
vn -0.0176 -0.0000 -0.9998
vn -0.9998 0.0000 -0.0212
vn -0.9959 0.0910 -0.0000
vn -0.9998 0.0000 0.0216
vn -0.9993 -0.0377 0.0000
vn 0.0000 1.0000 -0.0000
vn 0.0000 -0.0000 -1.0000
vn 0.0000 -0.0340 -0.9994
vn 0.9998 0.0201 -0.0000
vn 0.0000 -0.0108 0.9999
vn 0.0000 -0.0054 1.0000
vn -0.0019 0.0000 1.0000
vn 0.0030 1.0000 -0.0000
vn 0.0025 1.0000 -0.0000
vn -0.0052 -1.0000 0.0000
vn 0.0176 -0.0000 -0.9998
vn 0.9997 0.0000 -0.0262
vn 0.9995 -0.0000 0.0323
vn 0.9983 -0.0590 0.0000
vn -0.9997 0.0226 -0.0000
vn 0.0000 -0.9996 0.0290
vn 0.9998 -0.0003 -0.0218
vn -0.9936 -0.0000 -0.1131
vn 0.0000 0.9875 0.1573
vn 0.9746 0.0000 0.2237
vn -0.2015 0.9795 0.0000
usemtl Terreo
s 1
f 51/1/1 52/2/1 164/3/1 165/4/1
f 70/5/2 68/6/2 1/7/2 3/8/2
f 2/9/3 1/7/3 5/10/3 6/11/3
f 68/6/3 72/12/3 5/10/3 1/7/3
f 6/11/3 73/13/3 69/14/3 2/9/3
f 5/15/4 7/16/4 43/17/4 41/18/4
f 7/16/3 74/19/3 75/20/3 8/21/3
f 17/22/5 35/23/5 38/24/5 21/25/5
f 11/26/4 12/27/4 16/28/4 15/29/4
f 16/28/3 31/30/3 35/23/3 17/22/3
f 13/31/6 14/32/6 10/33/6 9/34/6
f 11/26/2 15/29/2 29/35/2 25/36/2
f 29/35/3 15/29/3 18/37/3 33/38/3
f 15/29/3 16/28/3 17/22/3 18/37/3
f 14/32/3 13/31/3 19/39/3 20/40/3
f 13/31/3 29/35/3 33/38/3 19/39/3
f 18/37/1 17/22/1 21/25/1 22/41/1
f 20/40/7 19/39/7 23/42/7 24/43/7
f 19/39/8 33/38/8 37/44/8 23/42/8
f 34/45/9 20/40/9 24/43/9 39/46/9
f 37/44/3 39/46/3 24/43/3 23/42/3
f 30/47/3 14/32/3 20/40/3 34/45/3
f 30/47/10 26/48/10 10/33/10 14/32/10
f 16/28/11 12/27/11 27/49/11 31/30/11
f 33/38/8 18/37/8 22/41/8 37/44/8
f 22/41/3 21/25/3 38/24/3 37/44/3
f 39/46/3 37/44/3 40/50/3
f 40/50/3 37/44/3 38/24/3
f 26/48/12 30/47/12 32/51/12 28/52/12
f 28/52/13 32/51/13 31/30/13 27/49/13
f 30/47/3 34/45/3 36/53/3 32/51/3
f 32/51/3 36/53/3 35/23/3 31/30/3
f 34/45/14 39/46/14 40/50/14 36/53/14
f 36/53/15 40/50/15 38/24/15 35/23/15
f 25/36/2 29/35/2 13/31/2 9/34/2
f 6/54/4 5/55/4 41/56/4 42/57/4
f 8/21/4 6/54/4 42/57/4 44/58/4
f 7/16/4 8/21/4 44/58/4 43/59/4
f 56/60/3 172/61/3 176/62/3 50/63/3
f 55/64/3 56/60/3 50/63/3 49/65/3
f 54/66/3 53/67/3 52/2/3 51/1/3
f 43/68/16 44/69/16 48/70/16 45/71/16
f 41/72/17 43/68/17 45/71/17 46/73/17
f 44/69/18 42/74/18 47/75/18 48/70/18
f 42/76/19 41/72/19 46/73/19 47/77/19
f 172/61/3 54/66/3 51/1/3 176/62/3
f 58/78/2 54/66/2 172/61/2 168/79/2
f 56/60/6 55/64/6 59/80/6 60/81/6
f 53/67/3 174/82/3 178/83/3 52/2/3
f 58/78/4 57/84/4 53/67/4 54/66/4
f 52/2/5 178/83/5 181/85/5 164/3/5
f 2/86/20 47/87/20 46/88/20 1/89/20
f 1/90/21 46/91/21 45/92/21 3/93/21
f 3/93/22 45/92/22 48/94/22 4/95/22
f 4/95/23 48/94/23 47/96/23 2/97/23
f 72/98/24 74/19/24 7/16/24 5/15/24
f 2/99/24 69/100/24 71/101/24 4/102/24
f 70/5/25 3/8/25 4/102/25 71/101/25
f 61/103/26 63/104/26 90/105/26 66/106/26
f 94/107/25 95/108/25 66/109/25 67/110/25
f 87/111/24 71/101/24 64/112/24 62/113/24
f 69/14/3 73/13/3 72/12/3 68/6/3
f 65/114/27 95/115/27 92/116/27 64/117/27
f 62/118/28 64/119/28 92/120/29 91/121/29
f 72/98/6 76/122/6 78/123/6 74/19/6
f 73/124/6 77/125/6 76/126/6 72/127/6
f 75/20/6 79/128/6 77/125/6 73/124/6
f 74/19/6 78/129/6 79/128/6 75/20/6
f 93/130/3 88/131/3 91/121/29 92/120/29
f 69/14/3 68/6/3 96/132/3 97/133/3
f 71/101/25 87/111/25 84/134/25 70/5/25
f 78/135/30 80/136/30 83/137/30 79/138/30
f 76/139/31 81/140/32 80/136/32 78/135/31
f 79/138/33 83/137/33 82/141/33 77/142/33
f 77/143/34 82/144/34 81/140/34 76/139/34
f 82/145/35 95/115/35 94/146/35 81/147/35
f 80/148/36 93/149/36 92/116/36 83/150/36
f 83/150/37 92/116/37 95/115/37 82/145/37
f 81/151/32 94/152/24 93/130/24 80/153/32
f 69/100/24 86/154/24 63/155/24 61/156/24 65/157/24
f 66/106/26 95/115/26 65/114/26 61/103/26
f 84/134/4 87/111/4 86/158/4 85/159/4
f 88/131/6 89/160/6 90/161/6 91/162/6
f 62/163/38 91/162/38 90/161/38 63/164/38
f 71/101/24 69/100/24 65/157/24 64/112/24
f 86/154/24 87/111/24 62/113/24 63/155/24
f 90/165/39 99/166/39 97/133/39 66/167/39
f 66/168/40 97/133/40 96/132/40 67/169/40
f 68/6/3 85/170/3 98/171/3 96/132/3
f 85/170/3 86/172/3 99/166/3 98/171/3
f 86/172/3 69/14/3 97/133/3 99/166/3
f 90/165/41 89/173/41 98/171/41 99/166/41
f 96/132/42 98/171/42 89/173/42 67/169/42
f 68/6/2 70/5/2 84/134/2 85/170/2
f 8/21/2 75/20/2 73/174/2 6/175/2
f 93/130/24 67/176/24 89/160/24 88/131/24
f 94/152/24 67/176/24 93/130/24
f 108/177/5 126/178/5 129/179/5 112/180/5
f 102/181/4 103/182/4 107/183/4 106/184/4
f 107/183/3 122/185/3 126/178/3 108/177/3
f 104/186/6 105/187/6 101/188/6 100/189/6
f 102/181/2 106/184/2 120/190/2 116/191/2
f 120/190/3 106/184/3 109/192/3 124/193/3
f 106/184/3 107/183/3 108/177/3 109/192/3
f 105/187/3 104/186/3 110/194/3 111/195/3
f 104/186/3 120/190/3 124/193/3 110/194/3
f 109/192/1 108/177/1 112/180/1 113/196/1
f 111/195/7 110/194/7 114/197/7 115/198/7
f 110/194/8 124/193/8 128/199/8 114/197/8
f 125/200/9 111/195/9 115/198/9 130/201/9
f 128/199/3 130/201/3 115/198/3 114/197/3
f 121/202/3 105/187/3 111/195/3 125/200/3
f 121/202/10 117/203/10 101/188/10 105/187/10
f 107/183/11 103/182/11 118/204/11 122/185/11
f 124/193/8 109/192/8 113/196/8 128/199/8
f 113/196/3 112/180/3 129/179/3 128/199/3
f 130/201/3 128/199/3 131/205/3
f 131/205/3 128/199/3 129/179/3
f 117/203/12 121/202/12 123/206/12 119/207/12
f 119/207/13 123/206/13 122/185/13 118/204/13
f 121/202/3 125/200/3 127/208/3 123/206/3
f 123/206/3 127/208/3 126/178/3 122/185/3
f 125/200/14 130/201/14 131/205/14 127/208/14
f 127/208/15 131/205/15 129/179/15 126/178/15
f 116/191/2 120/190/2 104/186/2 100/189/2
f 140/209/5 158/210/5 161/211/5 144/212/5
f 134/213/4 135/214/4 139/215/4 138/216/4
f 139/215/3 154/217/3 158/210/3 140/209/3
f 136/218/6 137/219/6 133/220/6 132/221/6
f 134/213/2 138/216/2 152/222/2 148/223/2
f 152/222/3 138/216/3 141/224/3 156/225/3
f 138/216/3 139/215/3 140/209/3 141/224/3
f 137/219/3 136/218/3 142/226/3 143/227/3
f 136/218/3 152/222/3 156/225/3 142/226/3
f 141/224/1 140/209/1 144/212/1 145/228/1
f 143/227/7 142/226/7 146/229/7 147/230/7
f 142/226/8 156/225/8 160/231/8 146/229/8
f 157/232/9 143/227/9 147/230/9 162/233/9
f 160/231/3 162/233/3 147/230/3 146/229/3
f 153/234/3 137/219/3 143/227/3 157/232/3
f 153/234/10 149/235/10 133/220/10 137/219/10
f 139/215/11 135/214/11 150/236/11 154/217/11
f 156/225/8 141/224/8 145/228/8 160/231/8
f 145/228/3 144/212/3 161/211/3 160/231/3
f 162/233/3 160/231/3 163/237/3
f 163/237/3 160/231/3 161/211/3
f 149/235/12 153/234/12 155/238/12 151/239/12
f 151/239/13 155/238/13 154/217/13 150/236/13
f 153/234/3 157/232/3 159/240/3 155/238/3
f 155/238/3 159/240/3 158/210/3 154/217/3
f 157/232/14 162/233/14 163/237/14 159/240/14
f 159/240/15 163/237/15 161/211/15 158/210/15
f 148/223/2 152/222/2 136/218/2 132/221/2
f 49/65/43 50/63/43 166/241/43 167/242/43
f 50/63/8 176/62/8 180/243/8 166/241/8
f 177/244/9 49/65/9 167/242/9 182/245/9
f 180/243/3 182/245/3 167/242/3 166/241/3
f 173/246/3 55/64/3 49/65/3 177/244/3
f 173/246/10 169/247/10 59/80/10 55/64/10
f 53/67/11 57/84/11 170/248/11 174/82/11
f 176/62/8 51/1/8 165/4/8 180/243/8
f 165/4/3 164/3/3 181/85/3 180/243/3
f 182/245/3 180/243/3 183/249/3
f 183/249/3 180/243/3 181/85/3
f 169/247/44 173/246/44 175/250/44 171/251/44
f 171/251/13 175/250/13 174/82/13 170/248/13
f 173/246/3 177/244/3 179/252/3 175/250/3
f 175/250/3 179/252/3 178/83/3 174/82/3
f 177/244/14 182/245/14 183/249/14 179/252/14
f 179/252/15 183/249/15 181/85/15 178/83/15
f 168/79/2 172/61/2 56/60/2 60/81/2
